<?xml version="1.0" encoding="utf-8"?>
<!-- Generator: Adobe Illustrator 22.1.0, SVG Export Plug-In . SVG Version: 6.00 Build 0)  -->
<svg version="1.1" id="New-Scan_xA0_Image_1_" xmlns="http://www.w3.org/2000/svg" xmlns:xlink="http://www.w3.org/1999/xlink"
	 x="0px" y="0px" viewBox="0 0 32 32" style="enable-background:new 0 0 32 32;" xml:space="preserve">
<style type="text/css">
	.st0{fill:#D30000;}
	.st1{fill:#202020;}
</style>
<g>
	<circle class="st0" cx="16.5" cy="16" r="14.2"/>
	<g>
		<g>
			<g>
				<g>
					<path class="st1" d="M30.1,16c0.1,0,0.3,0,0.2-0.1L30,15.8L30.1,16z"/>
					<path class="st1" d="M30.7,15.1c-0.2-0.1-0.5-0.3-0.8-0.2c0.3,0.1,0.2,0.2,0.6,0.3c0,0.1-0.1,0.2-0.2,0.2
						c0.1,0-0.1,0.2,0.1,0.3c0.2-0.2,0.2-0.4,0-0.6C30.5,15.1,30.6,15.1,30.7,15.1z"/>
					<path class="st1" d="M25,4L25,4C25.1,4.1,25,4,25,4z"/>
					<path class="st1" d="M17.5,1.2C17.5,1.1,17.6,1.1,17.5,1.2C17.5,1.1,17.5,1.1,17.5,1.2z"/>
					<path class="st1" d="M16.1,0.8C16.1,0.8,16.1,0.8,16.1,0.8C16.1,0.7,16.1,0.7,16.1,0.8z"/>
					<path class="st1" d="M25,4l-0.1-0.2C24.8,3.9,25,3.9,25,4z"/>
					<path class="st1" d="M29.7,13.5c0,0,0.1,0.1,0.1,0.1C29.7,13.6,29.7,13.6,29.7,13.5L29.7,13.5z"/>
					<path class="st1" d="M27.9,6.3L27.9,6.3c0.1,0,0.1,0,0.2,0L27.9,6.3z"/>
					<path class="st1" d="M29.5,8.5c0-0.1-0.3,0.1-0.4,0.1c0.1,0,0.2,0,0.2,0C29.4,8.6,29.5,8.6,29.5,8.5z"/>
					<path class="st1" d="M30.7,12.7L30.7,12.7C30.7,12.8,30.7,12.8,30.7,12.7z"/>
					<path class="st1" d="M26.5,4.8C26.5,4.7,26.5,4.7,26.5,4.8C26.5,4.7,26.5,4.7,26.5,4.8z"/>
					<path class="st1" d="M29.1,18.8C29.1,18.8,29.2,18.8,29.1,18.8C29.1,18.8,29.1,18.8,29.1,18.8z"/>
					<polygon class="st1" points="30.8,16 30.8,16 31,16.1 					"/>
					<path class="st1" d="M13.4,0.7C13.4,0.7,13.4,0.7,13.4,0.7C13.5,0.7,13.4,0.7,13.4,0.7z"/>
					<path class="st1" d="M1.4,19.3c0.2-0.3,0.4,0.4,0.6-0.1C1.9,19.2,1.5,18.9,1.4,19.3z"/>
					<path class="st1" d="M29.7,13.5c0,0,0-0.1,0-0.1C29.7,13.4,29.7,13.5,29.7,13.5z"/>
					<path class="st1" d="M2,19.2L2,19.2L2,19.2C2,19.1,2,19.1,2,19.2z"/>
					<path class="st1" d="M7.8,3.2c0,0,0.1,0,0.1,0.1C7.9,3.3,7.9,3.3,7.8,3.2z"/>
					<path class="st1" d="M12,1.6l-0.1,0C12,1.6,12,1.6,12,1.6z"/>
					<path class="st1" d="M6.2,5C6.2,5,6.1,5,6.1,5.1c0,0,0,0,0,0C6.1,5.1,6.1,5,6.2,5z"/>
					<path class="st1" d="M4.6,6.8C4.6,6.8,4.7,6.8,4.6,6.8l0.1-0.1L4.6,6.8z"/>
					<path class="st1" d="M26.5,24.4c0.1,0,0.2,0.1,0.3,0.1C26.5,24.4,26.7,24.2,26.5,24.4z"/>
					<path class="st1" d="M29.8,13.5c-0.1,0-0.1,0-0.1,0l0,0.1C29.8,13.5,29.8,13.5,29.8,13.5z"/>
					<path class="st1" d="M7.7,6.7L7.4,6.9C7.5,6.8,7.6,6.8,7.7,6.7z"/>
					<path class="st1" d="M12.9,28.6L12.9,28.6C12.9,28.6,12.9,28.6,12.9,28.6z"/>
					<path class="st1" d="M6.8,7.6c-0.1,0-0.2,0-0.3,0c0,0,0,0,0,0.1L6.8,7.6z"/>
					<path class="st1" d="M26.7,24.5L26.7,24.5L26.7,24.5z"/>
					<path class="st1" d="M27.4,22.4c-0.2,0.3,0.2,0.3,0.4,0.5c-0.1,0.4-0.3,0-0.5,0c0,0.3,0.1,0.6,0,0.7c-0.1,0-0.1,0-0.1-0.1
						c0.1,0.4-0.4,0.6-0.3,1.1c0,0-0.1,0-0.1,0c0.2,0.1,0.3,0.2,0.4,0.3c-0.1,0.1,0,0.4-0.2,0.2c0.1-0.1,0-0.1,0-0.2l0,0.2
						c-0.4-0.1,0.1-0.2-0.1-0.4c-0.1,0.3-0.1,0.7-0.4,0.9c-0.3-0.2,0.3-0.5-0.1-0.5l0.3-0.2c-0.6-0.2,0.2-0.1-0.4-0.3
						c-0.4,0.3-0.2,0.5-0.6,0.7c0.1,0.2,0.2,0.2,0.3,0.4c-0.3,0.7-0.9-0.3-1,0.4c0.1,0.3,0.3,0.6-0.1,0.6l-0.1-0.4
						c-0.4,0.2,0.1,0.6-0.4,0.7c0-0.2,0.2-0.3,0.1-0.3c-0.4-0.1,0,0.3-0.2,0.4l-0.2-0.3c-0.4,0.3-0.7,0.8-1.1,1.1
						c0-0.1,0-0.2-0.1-0.3c-0.3,0.2-0.6,0.4-0.9,0.5c-0.3,0.1-0.7,0.1-1,0.1l-0.1,0.4c-0.1,0-0.1-0.1-0.1-0.2c-0.3,0,0,0.2,0,0.3
						c-0.1,0.1-0.2-0.1-0.2-0.2c-0.3,0.3-1.1,0.8-1.6,0.6l0.1-0.1c-0.4-0.1-0.3,0.7-0.7,0.4l0.1-0.1c-0.8-0.1-1.7,0.2-2.2-0.3
						c-0.1,0.4-0.7-0.2-0.9,0.3C14.5,29,14.6,29,14,28.7c-0.2,0-0.3,0.3-0.5,0.3l0.1-0.3l-0.3,0.2l-0.1-0.4l-0.2,0
						c0.1,0,0.1,0.2,0.1,0.3c-0.3,0.1-0.7-0.4-0.6-0.6l-0.8,0c0.1-0.1,0.2-0.1,0.3-0.2c-0.5,0.2,0.1-0.3-0.4-0.2
						c0,0.1-0.1,0.2-0.1,0.2c-0.1-0.2-0.4-0.4-0.7-0.5l0.1-0.2c-0.4-0.2-1-0.4-1.5-0.7c0.1,0.2-0.1,0.5-0.3,0.4l0.1-0.3
						C9,27,9.3,27.1,9,27.2c-0.2-0.2,0.1-0.4,0.2-0.4L9,26.7c0-0.1,0.1-0.1,0.2-0.2C9,26.6,9,26,8.7,26.2l0-0.1
						c-0.5-0.3-0.7-0.5-1.1-0.8c-0.2,0.2-0.3,0-0.6,0.1c-0.2-0.3-0.3-0.8-0.6-1.1c-0.3-0.1-0.2,0.1-0.5,0.1c0.2-0.2-0.1-0.5,0.2-0.4
						c-0.3-0.4-0.5-0.5-1-0.9c-0.1,0.1,0,0.2-0.1,0.2C5,23.2,5.1,23,5.2,23l0,0c-0.4-0.2-0.4-0.7-0.4-1.1c0-0.4-0.1-0.8-0.4-1l0,0
						l-0.5-0.5c-0.1-0.3,0.2,0.1,0.3-0.2c-0.7-0.5-0.2-1-0.6-1.4c0.3-0.3,0.3-0.6,0.2-1c-0.1-0.4-0.2-0.8,0-1l-0.2,0
						c-0.2-0.1,0.1-0.2,0.1-0.3c-0.1,0-0.2,0.2-0.3,0.1c-0.2-0.6,0-1.2,0.1-1.9c0.1-0.3,0.2-0.6,0.3-0.9C4,13.6,4.1,13.3,4.2,13
						c0.2-0.4-0.8-0.5-0.3-0.9l0.3,0.3c-0.1-0.5,0.1-0.9,0.3-1.4c0.2-0.4,0.4-0.8,0.5-1.3c0,0.1,0.1,0.1,0.1,0.2
						c0.3-0.1,0.4-0.6,0.2-0.7c0.1-0.1,0.2,0.1,0.3,0c0.2-0.1,0-0.6,0.2-0.5c0,0,0,0.1,0,0.1c0-0.2,0.4-0.4,0.1-0.5
						c0.3-0.2,0.3-0.6,0.6-0.7C6.4,7.3,7,7.3,6.7,7c0.3,0.3,0.6-0.2,0.7-0.5c0,0.1,0.2,0,0.3,0.2C7.9,6.5,8,6.3,7.8,6.1
						c0.7,0.1,0.4-0.9,1.1-0.5C9.1,5.3,9.3,5,9.6,4.8c0.3-0.2,0.5-0.5,0.8-0.7c0.2,0.4-0.6,0.4-0.4,0.8c0.4-0.5,0.6-1,1.2-1.1
						c0.2,0,0,0.2,0,0.3c0.5-0.4,1.1-0.4,1.6-0.8c0,0,0,0.1-0.1,0.1c0.1,0,0.3,0,0.2-0.2l-0.1,0.1C12.5,3,13,2.6,13,2.4
						c0,0.6,0.6,0,0.5,0.8c0.1-0.1,0.1-0.2,0.1-0.3c0.1,0,0.2,0.1,0.1,0.3C14,3,13.8,2.8,14.2,2.7c0,0.1,0,0.1-0.1,0.3
						c0.1-0.2,0.3-0.4,0.6-0.4c0,0.1,0,0.1-0.1,0.1c0.5-0.1,0.8-0.6,1.4-0.4c-0.2,0.4,0.2,0.1,0.2,0.5c0.1,0,0.2-0.1,0.3-0.1
						l-0.1-0.2c0.3,0,0.5-0.2,0.8-0.1l-0.2,0.1l0.5,0l-0.3-0.2c0.3-0.2,0-0.5,0.4-0.4c-0.1,0,0.3,0,0.4,0.3l0,0
						c0.1-0.1,0.3-0.2,0.5-0.1c0,0.1-0.1,0.4-0.1,0.5c0.2-0.3,0.6,0,0.9-0.3c-0.1,0.1-0.1,0.3-0.1,0.3l0.2-0.2
						c0.1,0.1,0.1,0.2,0.1,0.3c0.4,0.1,0-0.5,0.4-0.2c0,0,0,0.1-0.1,0.1c0.4,0.2,0.9,0.1,1.3,0.3c0,0.4-0.4,0-0.3,0.3
						c0.6,0.1,1.3,0,1.8,0.4l-0.1-0.1c0.3-0.4,0.3,0.4,0.7,0.3c-0.1,0-0.2,0.2-0.2,0.2c0.3,0.3,0.8,0.3,1.4,0.5l-0.1,0.1
						c0.1,0.2,0.5,0.4,0.6,0.6c0.1-0.1,0.2,0,0.3-0.2c0.1,0.5,0.4,0.7,0.8,0.9c0.4,0.1,0.7,0.3,0.7,0.8c-0.1-0.1-0.2-0.1-0.2,0
						l0.5,0.4C27,7,26.9,7,27,6.8c0.2,0,0.4,0,0.5,0.1c-0.3-0.1-0.3,0.2-0.3,0.4c0-0.1,0.1-0.1,0.2-0.1c-0.1,0.5,0.4-0.2,0.4,0.3
						l-0.1,0.1c0.1,0.1,0.4,0.1,0.4,0.3c-0.2,0.2-0.2-0.1-0.4,0.1c0.2,0.2,0.7,0.1,0.6,0.4c-0.1,0-0.2-0.2-0.3-0.2
						c-0.1,0.4,0,0.4,0,0.5l0,0L28.1,9l0-0.1c0.7-0.1,0.5,0.4,1,0.6c-0.6-0.2-0.3,0.1-0.5,0.2c0,0.1,0,0.3-0.1,0.3
						c0.3,0.1,0,0.4,0.4,0.5c-0.1,0.1,0.1,0.2-0.2,0.2c0.2,0.2,0.1-0.1,0.3-0.2c0.5,0.2-0.1,1,0.6,1.3c0.3,0.4,0.6,0.4,0.9,0.8
						c-0.1,0.2-0.4,0-0.4,0c-0.1,0.3,0,0.4,0.1,0.6c-0.1,0-0.2,0-0.3,0.1c0.1,0.2,0.4,0.1,0.3,0.3c-0.1,0-0.3,0-0.4-0.1
						c0.1,0.2,0.3,0.4,0.5,0.6c-0.2,0.1-0.3-0.1-0.4-0.2c0.1,0.2,0.3,0.6,0.5,0.7l0.1-0.2c0,0.1-0.2,0.1-0.3,0
						c-0.2-0.2,0-0.3,0.1-0.3l0.1,0.2c0.5-0.2-0.2-0.6-0.2-1l0.4,0.1l-0.4-0.3c0.1-0.1,0.3-0.2,0.4,0c0.2-0.3-0.2-0.2,0-0.4
						c0,0,0.1,0,0.1,0l-0.2-0.2c0.1,0,0.3-0.1,0.3,0c0.1-0.5-0.5-0.6-0.2-0.8l0,0c-0.3-0.5-0.3,0-0.8-0.3l0.6-0.5l-0.3,0
						c0-0.1,0-0.2,0.1-0.2c-0.3-0.1-0.1,0.1-0.3,0c0.2-0.4-0.4-0.7,0-0.9c-0.3,0,0,0.3-0.3,0.1c0.4-0.3-0.2-0.3-0.1-0.6
						c0.3,0,0.3,0.2,0.4-0.1c-0.5,0.1-0.1-0.5-0.4-0.7C29,8.8,29,8.3,28.7,8C28.8,8,28.4,7.3,28.3,7l0.1,0c-0.3,0.2-0.5-0.2-0.7-0.3
						c0.2-0.1,0.3-0.2,0.4-0.1l-0.2-0.2c-0.1,0-0.2,0-0.4-0.1l0.2-0.1c-0.2-0.2-0.7-0.3-0.9-0.7c-0.2,0.2-0.3,0.7-0.7,0.6
						c0.1-0.1,0.2-0.3,0.4-0.3c0,0-0.2,0-0.2-0.1l0.3,0c-0.1-0.2-0.2,0.1-0.3,0c0.1-0.1,0-0.2,0.1-0.3c0,0,0,0.2,0.1,0.1
						c-0.1-0.1-0.2-0.4-0.1-0.5c-0.1,0.1-0.2,0.2-0.3,0.1c-0.3-0.2,0.1-0.3,0-0.5c-0.1,0-0.2-0.2-0.4,0c-0.1-0.1,0-0.2,0-0.3
						c-0.2,0-0.7-0.5-0.7-0.1l0,0c0,0,0,0,0,0l0,0l0,0c-0.6-0.1-0.9-0.8-1.4-1l0-0.1c-0.3-0.1-0.7-0.3-1-0.2c-0.1,0-0.1-0.3,0-0.4
						c-0.3,0-0.3,0-0.6-0.2c0.3-0.1,0-0.2,0.3,0C22,2.1,22,1.9,21.6,2c0.2-0.2-0.1-0.4-0.3-0.4l0.2,0.3c-0.2,0-0.3-0.1-0.5-0.2
						l0.2-0.3c-0.6-0.6-1.4,0.3-1.8-0.4c-0.2,0.2,0.3,0.2,0.1,0.5c-0.3-0.1-0.6-0.6-0.7-0.6c-0.4-0.2-0.5,0.4-0.9,0.2
						c0,0.1,0.1,0.4-0.3,0.5c-0.3-0.1-0.4-0.5-0.1-0.6c0.1,0,0.1,0,0.1,0.1c0.1,0,0.2-0.1,0.1-0.2L17.7,1c-0.2-0.1-0.6-0.1-0.5-0.3
						c-0.3,0.1-0.1,0.2,0.1,0.3c-0.4-0.2-0.6-0.1-1.1-0.1C16.2,0.8,16.3,1,16.2,1c-0.6-0.1-0.3,0.2-0.7,0.3
						c-0.2-0.2,0.1-0.4-0.4-0.3c-0.3-0.1-0.1-0.3,0-0.4c-0.4,0.2-0.8-0.1-1-0.1l0.2-0.1c-0.1,0.1-0.2,0.1-0.3,0.1l0.2,0.2
						c-0.1,0-0.2,0-0.2-0.1c-0.1,0.2,0.2,0.4-0.1,0.6c-0.2-0.1-0.5,0.2-0.6-0.1c0.5,0-0.1-0.3,0.3-0.4c-0.1,0.1-0.2,0.1-0.3,0
						c0,0,0-0.1,0-0.1c-0.5-0.2-0.1,0.4-0.6,0.5c0-0.2-0.2-0.3-0.3-0.2c0.2,0,0.2,0.3,0,0.4c-0.4-0.1-0.3,0.2-0.5,0.2l0.2,0
						c0,0.2-0.2,0.2-0.4,0.3c-0.1-0.1,0.2-0.2,0.1-0.2C11.8,2.2,11.3,1.7,11,2c-0.2-0.1-0.1-0.3-0.3-0.3C10.5,2,10.3,1.6,9.9,2
						c0.2,0.2,0.2,0.1,0,0.4l0.5-0.4l-0.2,0.5c0.2-0.1,0.3-0.3,0.5-0.3c-0.1,0.3-0.1,0.2,0,0.3c-0.4-0.2-0.4,0.4-0.8,0.3L9.7,2.3
						c-0.6,0-0.6,0.7-1.2,0.9l0.2,0c0.1,0.2-0.3,0.2-0.4,0.4C8.2,3.3,8.1,3.3,7.9,3.3C8,3.4,7.5,3.6,7.7,3.9l-0.4,0
						c-0.5,0.2-0.1,0.8-0.5,1c0-0.3-0.3-0.2-0.1-0.6C6.6,4.5,6.4,4.5,6.5,4.7c-0.2,0-0.2,0.5-0.4,0.5c0,0.1,0.1,0.3,0,0.4
						c0,0-0.1-0.1-0.1-0.1C6.1,5.5,6,5.7,6.2,5.8c-0.8-0.1-0.9,1-1.5,1c-0.2,0.3-0.4,0.7-0.5,1c0-0.1-0.1-0.1,0-0.1
						C3.7,7.9,4.5,8.2,4,8.5C3.6,8.5,4,8.2,3.8,8.3C3.2,8,3.6,8.8,3.1,8.9l0-0.1C2.8,9,3,9.5,2.8,9.9c0,0,0,0-0.1,0
						c0.2,0.4,0.1,0.9,0,1.3C2.6,11,2.7,11,2.4,10.9c0,0.2,0.4,0.1,0.4,0.4c-0.2,0.1-0.4,0.3-0.6,0.2c0-0.1,0.1-0.2,0.1-0.3
						c-0.4,0.1-0.1,0.4-0.2,0.6l-0.1-0.1C1.8,12.3,2.2,12.4,2,13l0.1,0c0.3,0.4-0.3,0.2,0,0.6l-0.4,0C1.8,13.7,2,14.3,2,14.6
						c-0.3-0.2-0.4-0.7-0.5-1c0,0.2-0.1,0.7,0.1,0.8c0-0.1-0.1-0.2,0-0.3c0.3,0.3,0.4,0.6,0.4,1c-0.8-0.1-0.3,1-0.8,1.3
						c0.2,0.4,0.1,0.7,0.1,1.1c0,0.4,0,0.8,0.1,1.2c0.5-0.4,0.1,0.2,0.6,0.1c0.1,0.2,0.1,0.2,0,0.3l-0.2,0.7
						c-0.1,0.2-0.2-0.1-0.3-0.1c0.1,0.4-0.2,0.2-0.3,0.6c0.2-0.1,0.3,0.1,0.3,0.3l0.2-0.4c0.5,0.5-0.3,0.7,0.2,1.1l-0.2-0.1
						c0.2,0.3,0.4,1.1,1,1.2c0,0.1-0.2,0.2-0.3,0.1c0.2,0.7,1.2,1.2,1.3,1.9l-0.2,0c0.1,0.1,0.4,0.1,0.3,0.3c-0.1,0-0.2,0-0.1,0.1
						c0.1,0,0.4,0.1,0.5,0.3l-0.2,0c0.1,0.4,0.4,0.5,0.7,0.6c0.3,0.1,0.6,0.2,0.8,0.4c-0.3,0.3-0.1,0.8,0.1,1.1l-0.1,0
						c0.6,0.6,1.3,0.7,2.1,1c0.1,0.7,1.3,1.1,1.8,1.7c-0.1-0.1,0.2-0.3,0.3-0.3c0.1,0.2,0.6-0.1,0.4,0.3l-0.1,0
						c0,0.4,0.3,0.5,0.6,0.6l0.2-0.5c0.2,0.5,0.7,0.6,1.2,0.7c0.5,0,0.9,0.1,1,0.4c0.2-0.1,0.4,0,0.6-0.1l-0.1,0.3
						c0.5,0.1,0.8,0.2,1.4,0.2L15,31.7c0.4,0,0.5-0.8,0.8-0.8l0.1,0.4c0.6,0.1,1.3,0.4,1.9-0.1c0,0.1,0,0.2-0.1,0.2
						c0.3,0,1.2,0.1,1-0.4c0.1,0.4,0.7-0.1,0.9-0.3l0,0.3c0.2-0.4,0.2-0.5,0.5-0.7c0.1,0,0.1,0.2,0,0.2c0.3,0.1,0.2-0.3,0.6-0.3
						l-0.1,0.2c0.3-0.1,0.3-0.1,0.4-0.4c0.1-0.2,0.6-0.1,0.7,0.1c0-0.2,0.1-0.4,0.3-0.4c0.1,0.1,0,0.2,0,0.2c0.6,0,0.6-0.6,1-0.5
						c0,0.1,0.1,0.1,0.1,0.1c-0.4,0.2-0.7,0.3-0.7,0.3c0.1,0.2,0.4,0.1,0.3,0.6c0.2-0.3,0.4-0.9,0.8-0.9c0,0,0.1,0,0.1,0.1l0,0
						c0.1,0,0.1-0.1,0.2-0.1c0.1,0,0.2,0,0.3-0.1c0.1,0.2,0.4-0.1,0.6-0.2c-0.2-0.2,0.1-0.3-0.2-0.4c0,0,0,0-0.1,0.1c0,0,0,0,0,0.1
						l0,0c-0.1,0.1-0.2,0.1-0.4,0.2c0-0.2,0.1-0.4,0.3-0.3c0-0.2,0-0.4,0-0.5c0.4,0.2,0.9,0.2,1.1,0.3c0.3-0.5,1-0.8,0.8-1.5
						c0.1-0.1,0.2,0,0.3,0c0,0.1-0.1,0.2-0.1,0.2c0.1-0.3,0.6-0.6,0.4-0.9c0.4-0.1,0.1,0.4,0.4,0l0,0.1c0.6-0.2,0.7-0.6,0.8-1.1
						c0.1-0.5,0.2-0.9,0.8-1.1c-0.1,0-0.1,0.1-0.2,0c1-0.9,1.1-2.3,1.9-3.3c0.2-0.3,0-0.4-0.1-0.7l0.3,0L30.6,20
						c-0.1-0.6,1-0.7,0.6-1.5l-0.2,0c0.1-0.2,0-0.8,0.2-0.7c0,0-0.2-0.1-0.1-0.2l0.2,0c-0.1-0.2-0.1-0.4-0.2-0.6
						c0.1-0.4,0.6,0.1,0.7-0.5c0-0.3-0.4-0.7-0.5-0.6c0,0.1-0.1,0.2-0.3,0.3L30.8,16c-0.5,0-0.9-0.2-1.3,0.3l0.3,0.4l-0.2,0.1l0-0.3
						c-0.2,0.2,0,0.3,0.1,0.4c-0.1,0-0.2,0.1-0.3,0.1l0.4,0.4c-0.2,0-0.3-0.2-0.5,0c0.2,0.2,0.4-0.1,0.5,0.2
						c-0.2,0.1-0.4,0.1-0.2,0.3c-0.1,0-0.2,0-0.2-0.1c0.1,0.2,0,0.4,0.2,0.6c-0.3,0.1,0,0.6-0.5,0.5c0.1,0.1,0.3,0.4,0.2,0.5
						c-0.4-0.4-0.2,0.6-0.7,0.3c0.4,0.3,0,0.8,0.1,1.2c0,0-0.1-0.1-0.1-0.1c-0.1,0.2-0.3,0.2-0.4,0.3c0.4,0.2,0.3,0.5,0.4,0.8
						c-0.5,0.1-0.3-0.3-0.7-0.4c0.3,0.1,0.1,0.5,0.4,0.6c-0.3,0.1-0.2,0.1-0.5,0c0.4,0.3,0,0.2,0.2,0.5c-0.4,0.1-0.4-0.2-0.5,0.2
						C27.4,22.7,27.4,22.4,27.4,22.4z M22.7,28L22.7,28c0.1,0,0.1-0.1,0.1-0.1C22.8,27.9,22.8,27.9,22.7,28z M22.1,28.3
						c0.1,0,0.2-0.1,0.3-0.1c0.1,0.1,0.1,0.2,0,0.2C22.4,28.3,22.2,28.3,22.1,28.3z M24.3,29.3c-0.1,0.1-0.1,0.1-0.2,0
						c0,0,0.1-0.1,0.2-0.1l0,0C24.3,29.2,24.3,29.3,24.3,29.3z"/>
					<path class="st1" d="M24.3,28.9C24.3,28.9,24.3,28.9,24.3,28.9C24.3,28.8,24.3,28.8,24.3,28.9L24.3,28.9L24.3,28.9z"/>
					<path class="st1" d="M25.1,4.1L25.1,4.1C25.1,4.1,25.1,4.1,25.1,4.1C25.1,4.1,25.1,4.1,25.1,4.1z"/>
					<polygon class="st1" points="13.6,28.6 13.6,28.7 13.6,28.6 					"/>
					<path class="st1" d="M27.1,7.3C27.1,7.4,27.1,7.4,27.1,7.3C27.1,7.4,27.1,7.4,27.1,7.3z"/>
					<path class="st1" d="M28,8.6l0,0.2C28,8.8,28,8.7,28,8.6z"/>
					<path class="st1" d="M28.4,9.7c0.1,0,0.1,0,0.1,0l0,0L28.4,9.7z"/>
					<path class="st1" d="M12.7,3.4C12.6,3.4,12.6,3.4,12.7,3.4C12.5,3.5,12.6,3.5,12.7,3.4z"/>
					<path class="st1" d="M18.1,2.3c-0.1,0-0.1,0.1-0.2,0.1C18,2.4,18.1,2.4,18.1,2.3z"/>
					<polygon class="st1" points="7.7,6.7 7.7,6.7 7.7,6.7 					"/>
					<path class="st1" d="M17.6,2.4c0.1,0.1,0.2,0.1,0.3,0C17.8,2.4,17.7,2.3,17.6,2.4z"/>
					<path class="st1" d="M29.8,14.6L29.8,14.6C29.8,14.6,29.8,14.6,29.8,14.6L29.8,14.6z"/>
					<path class="st1" d="M29.8,14.6L29.8,14.6C29.9,14.7,29.9,14.6,29.8,14.6z"/>
					<path class="st1" d="M30,14.8l-0.1-0.1C29.9,14.7,29.9,14.8,30,14.8z"/>
					<path class="st1" d="M29.7,13l-0.1,0C29.6,13,29.6,13,29.7,13z"/>
					<path class="st1" d="M29.5,12.6c0,0.1-0.1,0.3,0,0.5l0.1,0C29.4,13,29.7,12.6,29.5,12.6z"/>
					<path class="st1" d="M30.1,10.2c0,0.1,0.1,0.3,0.1,0.4c0.1-0.1,0.2-0.3,0.3-0.1C30.5,9.9,30.2,10.8,30.1,10.2z"/>
					<path class="st1" d="M29.6,8.9c0.1,0.2,0.1-0.1,0.2-0.1C29.7,8.8,29.6,8.7,29.6,8.9z"/>
					<path class="st1" d="M22.6,2.4l0.1-0.2C22.5,2.1,22.7,2.3,22.6,2.4z"/>
					<path class="st1" d="M20.4,3c0,0.1,0.1,0.1,0.1,0.2L20.7,3C20.6,3,20.5,3,20.4,3z"/>
					<polygon class="st1" points="19.9,1 19.9,1 19.6,1 					"/>
					<path class="st1" d="M4.7,6.3L5,6.4C5,6.3,4.7,6.1,4.7,6.3z"/>
					<path class="st1" d="M1.9,12.9c-0.2,0-0.3,0.2-0.2,0.4C1.7,13.1,1.9,12.9,1.9,12.9z"/>
					<polygon class="st1" points="11.1,30.5 11,30.6 11.3,30.6 					"/>
				</g>
			</g>
		</g>
	</g>
</g>
<g>
	<path d="M27.7,15.3c-0.1,1.3-0.6,2.2-1.8,2.6c-0.7,0.2-1.4,0.3-2.1,0.4c-0.8,0.1-1.1,0.6-1.3,1.3c-0.1,0.7-0.2,1.3-0.4,2
		c-0.3,1-0.9,1.2-1.9,0.7c-1.3-0.7-1.4-0.9-1.2-2.3c0.1-0.9,0.3-1.8-0.8-2.5c1.1-0.2,1.2-0.9,1.2-1.6c0-0.9,0.3-1.8,0.4-2.8
		c-1.3-0.5-2.9,0.1-3.9-1.1c0.3-1,0.3-1,3-1.1c0.1-0.4,0.1-0.9,0.3-1.1c0.3-0.2,0.8-0.3,1.1-0.2c1.4,0.5,2.7,0.3,4.1,0.2
		c1.2-0.1,2.4,0.1,3.4,1.2c-0.9,1.7-2.6,1.8-4.1,2.3c-0.1,1.1-0.2,2.2-0.3,3.3C24.9,16.1,26.1,15,27.7,15.3z"/>
	<path d="M5.3,22.4c0.2-0.5,0.4-0.9,0.6-1.5c-0.8-0.8-0.3-1.7-0.1-2.7c0.3-1.5,0.6-3,0.9-4.5c0.1-0.6,0-1.1-0.4-1.6
		c-0.5-0.7-0.3-1.3,0.5-1.4c2.3-0.3,4.7-0.7,7,0.5c1.6,0.8,2.7,2,3.2,3.7c0.2,0.7,0.1,1.4-0.2,2c-0.6,0.9-1.3,1.7-2.3,2.1
		c-1.1,0.5-2.2,1.1-3.3,1.6c-1,0.4-2,0.7-3,1.1c-0.8,0.3-1.7,0.5-2.5,0.8C5.5,22.4,5.4,22.4,5.3,22.4z M8.9,18.7
		c0.2,0,0.4,0,0.4-0.1c1.6-0.9,3.1-2.1,4.4-3.5c0.5-0.6,0.5-1.1,0.1-1.8c-0.9-1.5-2.6-2.1-4.5-1.4C10.8,14.3,9.8,16.5,8.9,18.7z"/>
</g>
</svg>
